<svg width="118" height="118" viewBox="0 0 118 118" fill="none" xmlns="http://www.w3.org/2000/svg">
<g clip-path="url(#clip0_101_8)">
<path d="M58.86 0C67.99 0 76.63 2.08 84.35 5.79C81.19 8.29 78.26 10.69 75.53 13C70.33 11.11 64.72 10.08 58.87 10.08C45.4 10.08 33.2 15.54 24.38 24.37C15.55 33.2 10.09 45.39 10.09 58.86C10.09 72.33 15.55 84.52 24.38 93.35C33.21 102.18 45.4 107.64 58.87 107.64C72.34 107.64 84.54 102.18 93.36 93.35C102.19 84.52 107.65 72.33 107.65 58.86C107.65 55.66 107.34 52.52 106.75 49.49C109.28 46.19 111.87 42.9 114.52 39.64C116.6 45.66 117.73 52.13 117.73 58.86C117.73 75.11 111.14 89.83 100.49 100.48C89.84 111.13 75.12 117.72 58.87 117.72C42.62 117.72 27.9 111.13 17.25 100.48C6.59 89.83 0 75.11 0 58.86C0 42.61 6.59 27.89 17.24 17.24C27.89 6.59 42.61 0 58.86 0ZM31.44 49.19L45.8 49L46.87 49.28C49.77 50.95 52.5 52.86 55.05 55.02C56.89 56.58 58.65 58.28 60.32 60.12C65.47 51.83 70.96 44.22 76.76 37.22C83.11 29.55 89.85 22.59 96.93 16.24L98.33 15.7H114L110.84 19.21C101.13 30 92.32 41.15 84.36 52.65C76.4 64.16 69.28 76.04 62.95 88.27L60.98 92.07L59.17 88.2C55.83 81.03 51.83 74.45 47.06 68.57C42.29 62.69 36.74 57.47 30.27 53.03L31.44 49.19Z" fill="white"/>
</g>
<defs>
<clipPath id="clip0_101_8">
<rect width="117.72" height="117.72" fill="white"/>
</clipPath>
</defs>
</svg>
